# This file uses centimeters as units for non-parametric coordinates.

mtllib Gem1.mtl
g default
v -0.257094 3.414066 -0.633134
v -0.633134 3.414066 0.257094
v 0.257094 3.414066 0.633134
v 0.633134 3.414066 -0.257094
v 0.000000 4.091063 0.000000
v -0.000000 0.091063 -0.000000
vt 0.500000 0.000000
vt 0.250000 0.250000
vt 0.500000 0.500000
vt 0.750000 0.250000
vt 0.250000 0.500000
vt 0.375000 0.500000
vt 0.500000 0.500000
vt 0.625000 0.500000
vt 0.750000 0.500000
vt 0.500000 1.000000
vt 0.500000 0.250000
vn 0.368519 -0.201425 0.907536
vn -0.000000 -1.000000 0.000000
vn 0.907536 -0.201425 -0.368519
vn -0.749797 0.580941 -0.316721
vn -0.749797 0.580941 -0.316721
vn -0.749797 0.580941 -0.316721
vn -0.316721 0.580941 0.749797
vn -0.316721 0.580941 0.749797
vn -0.316721 0.580941 0.749797
vn 0.749797 0.580941 0.316721
vn 0.749797 0.580941 0.316721
vn 0.749797 0.580941 0.316721
vn 0.316721 0.580941 -0.749797
vn 0.316721 0.580941 -0.749797
vn 0.316721 0.580941 -0.749797
vn -0.368519 -0.201425 -0.907536
vn -0.907536 -0.201425 0.368519
s 1
g pCone2
usemtl initialShadingGroup
f 3/3/1 6/11/2 4/4/3
s off
f 1/5/4 2/6/5 5/10/6
f 2/6/7 3/7/8 5/10/9
f 3/7/10 4/8/11 5/10/12
f 4/8/13 1/9/14 5/10/15
s 1
f 1/1/16 4/4/3 6/11/2
f 2/2/17 6/11/2 3/3/1
f 1/1/16 6/11/2 2/2/17
