# This file uses centimeters as units for non-parametric coordinates.

mtllib Gem3.mtl
g default
v 0.000000 4.091063 0.000000
v -0.000000 0.091063 -0.000000
v -0.140203 2.841188 -0.345272
v -0.186356 2.154217 -0.458932
v -0.173628 1.453683 -0.427588
v -0.102853 0.774395 -0.253292
v -0.345272 2.841188 0.140203
v -0.458932 2.154217 0.186356
v -0.427588 1.453683 0.173628
v -0.253292 0.774395 0.102853
v 0.140203 2.841188 0.345272
v 0.186356 2.154217 0.458932
v 0.173629 1.453683 0.427588
v 0.102853 0.774395 0.253292
v 0.345272 2.841188 -0.140203
v 0.458932 2.154217 -0.186356
v 0.427588 1.453683 -0.173629
v 0.253292 0.774395 -0.102853
vt 0.500000 0.350015
vt 0.431833 0.727331
vt 0.500000 0.727331
vt 0.568167 0.727331
vt 0.636335 0.727331
vt 0.500000 1.000000
vt 0.600015 0.250000
vt 0.399985 0.250000
vt 0.500000 0.149985
vt 0.500000 0.250000
vt 0.363665 0.727331
vt 0.693025 0.613951
vt 0.306975 0.613951
vt 0.750000 0.500000
vt 0.500000 0.000000
vt 0.250000 0.500000
vt 0.417636 0.562990
vt 0.250000 0.250000
vt 0.375000 0.500000
vt 0.434859 0.307612
vt 0.559245 0.420101
vt 0.412622 0.412622
vt 0.463809 0.461487
vt 0.654564 0.378764
vt 0.457070 0.202729
vt 0.479307 0.097719
vt 0.750000 0.337378
vn 0.900658 -0.209943 0.380446
vn 0.886403 -0.272207 0.374425
vn 0.900658 -0.209943 0.380446
vn -0.909767 0.156979 -0.384294
vn -0.909767 0.156979 -0.384294
vn -0.901374 0.206291 -0.380749
vn -0.384294 0.156979 0.909767
vn -0.384294 0.156979 0.909767
vn -0.380749 0.206291 0.901374
vn 0.909767 0.156979 0.384294
vn 0.909767 0.156979 0.384294
vn 0.901374 0.206291 0.380748
vn 0.384294 0.156979 -0.909767
vn 0.384294 0.156979 -0.909767
vn 0.380749 0.206291 -0.901374
vn 0.380446 -0.209943 -0.900658
vn 0.380446 -0.209943 -0.900658
vn 0.374425 -0.272207 -0.886403
vn -0.380446 -0.209943 0.900658
vn -0.374425 -0.272207 0.886403
vn -0.380446 -0.209943 0.900658
vn -0.900658 -0.209943 -0.380447
vn -0.886403 -0.272207 -0.374425
vn -0.900658 -0.209943 -0.380447
vn -0.916859 -0.096831 -0.387290
vn -0.916859 -0.096831 -0.387290
vn -0.920490 0.038923 -0.388823
vn -0.920490 0.038923 -0.388823
vn -0.387290 -0.096831 0.916859
vn -0.387290 -0.096831 0.916859
vn -0.388824 0.038923 0.920490
vn -0.388824 0.038923 0.920490
vn 0.916859 -0.096831 0.387290
vn 0.916859 -0.096831 0.387290
vn 0.920490 0.038923 0.388823
vn 0.920490 0.038923 0.388823
vn 0.387290 -0.096831 -0.916859
vn 0.387290 -0.096831 -0.916859
vn 0.388823 0.038923 -0.920490
vn 0.388823 0.038923 -0.920490
s 1
g pCone2
usemtl initialShadingGroup
f 14/1/1 2/10/2 18/7/3
s 2
f 3/11/4 7/2/5 1/6/6
s 3
f 7/2/7 11/3/8 1/6/9
s 1
f 11/3/10 15/4/11 1/6/12
s 5
f 15/4/13 3/5/14 1/6/15
f 6/9/16 18/7/17 2/10/18
s 3
f 10/8/19 2/10/20 14/1/21
s 2
f 6/9/22 2/10/23 10/8/24
f 5/15/25 6/9/22 10/8/24 9/18/26
f 3/11/4 4/13/27 8/17/28 7/2/5
f 4/13/27 5/16/25 9/19/26 8/17/28
s 3
f 9/18/29 10/8/19 14/1/21 13/22/30
f 7/2/7 8/17/31 12/21/32 11/3/8
f 8/17/31 9/19/29 13/23/30 12/21/32
s 1
f 13/22/33 14/1/1 18/7/3 17/26/34
f 11/3/10 12/21/35 16/24/36 15/4/11
f 12/20/35 13/22/33 17/26/34 16/25/36
s 5
f 6/9/16 5/15/37 17/26/38 18/7/17
f 5/14/37 4/12/39 16/24/40 17/27/38
f 4/12/39 3/5/14 15/4/13 16/24/40
