# This file uses centimeters as units for non-parametric coordinates.

mtllib Bricks1.mtl
g default
v 0.192548 -0.741012 -0.027092
v 0.192548 -0.720118 -0.006198
v 0.171653 -0.720118 -0.027092
v 0.824998 -0.720118 -0.027092
v 0.804104 -0.720118 -0.006198
v 0.804104 -0.741012 -0.027092
v 0.171653 -0.388048 -0.027092
v 0.192548 -0.388048 -0.006198
v 0.192548 -0.367154 -0.027092
v 0.804104 -0.367154 -0.027092
v 0.804104 -0.388048 -0.006198
v 0.824998 -0.388048 -0.027092
v 0.171653 -0.388048 -0.075852
v 0.192548 -0.367154 -0.075852
v 0.804104 -0.367154 -0.075852
v 0.824998 -0.388048 -0.075852
v 0.192548 -0.741012 -0.075852
v 0.171653 -0.720118 -0.075852
v 0.824998 -0.720118 -0.075852
v 0.804104 -0.741012 -0.075852
vt 0.382995 0.925008
vt 0.375000 0.925008
vt 0.375000 0.750000
vt 0.382995 0.000000
vt 0.382995 0.013972
vt 0.625000 0.925008
vt 0.617005 0.925008
vt 0.617005 0.750000
vt 0.625000 0.750000
vt 0.699992 0.013972
vt 0.375000 0.324992
vt 0.382995 0.500000
vt 0.375000 0.500000
vt 0.382995 0.236028
vt 0.617005 0.236028
vt 0.625000 0.324992
vt 0.625000 0.500000
vt 0.617005 0.013972
vt 0.382995 0.324992
vt 0.617005 0.324992
vt 0.617005 0.500000
vt 0.382995 0.750000
vt 0.875000 0.013972
vt 0.875000 0.236028
vt 0.125000 0.013972
vt 0.300008 0.013972
vt 0.300008 0.236028
vt 0.125000 0.236028
vt 0.617005 0.000000
vt 0.699992 0.236028
vn -0.707107 -0.707106 0.000000
vn -0.707107 -0.707106 0.000000
vn -0.707107 -0.707106 0.000000
vn -0.707107 -0.707106 0.000000
vn 0.000000 -0.707106 0.707107
vn 0.000000 -0.707106 0.707107
vn 0.000000 -0.707106 0.707107
vn 0.000000 -0.707106 0.707107
vn -0.707107 0.000000 0.707107
vn -0.707107 0.000000 0.707107
vn -0.707107 0.000000 0.707107
vn -0.707107 0.000000 0.707107
vn 0.707107 -0.707106 0.000000
vn 0.707107 -0.707106 0.000000
vn 0.707107 -0.707106 0.000000
vn 0.707107 -0.707106 0.000000
vn 0.707107 0.000000 0.707107
vn 0.707107 0.000000 0.707107
vn 0.707107 0.000000 0.707107
vn 0.707107 0.000000 0.707107
vn -0.707107 0.707107 0.000000
vn -0.707107 0.707107 0.000000
vn -0.707107 0.707107 0.000000
vn -0.707107 0.707107 0.000000
vn 0.000000 0.707107 0.707107
vn 0.000000 0.707107 0.707107
vn 0.000000 0.707107 0.707107
vn 0.000000 0.707107 0.707107
vn 0.707107 0.707107 0.000000
vn 0.707107 0.707107 0.000000
vn 0.707107 0.707107 0.000000
vn 0.707107 0.707107 0.000000
vn 0.000000 0.000000 1.000000
vn 0.000000 0.000000 1.000000
vn 0.000000 0.000000 1.000000
vn 0.000000 0.000000 1.000000
vn 0.000000 1.000000 0.000000
vn 0.000000 1.000000 0.000000
vn 0.000000 1.000000 0.000000
vn 0.000000 1.000000 0.000000
vn 0.000000 -1.000000 0.000000
vn 0.000000 -1.000000 0.000000
vn 0.000000 -1.000000 0.000000
vn 0.000000 -1.000000 0.000000
vn 1.000000 0.000000 0.000000
vn 1.000000 0.000000 0.000000
vn 1.000000 0.000000 0.000000
vn 1.000000 0.000000 0.000000
vn -1.000000 0.000000 0.000000
vn -1.000000 0.000000 0.000000
vn -1.000000 0.000000 0.000000
vn -1.000000 0.000000 0.000000
vn -0.577350 -0.577349 0.577351
vn -0.577350 -0.577349 0.577351
vn -0.577350 -0.577349 0.577351
vn 0.577350 -0.577349 0.577351
vn 0.577350 -0.577349 0.577351
vn 0.577350 -0.577349 0.577351
vn -0.577350 0.577350 0.577350
vn -0.577350 0.577350 0.577350
vn -0.577350 0.577350 0.577350
vn 0.577350 0.577350 0.577350
vn 0.577350 0.577350 0.577350
vn 0.577350 0.577350 0.577350
s off
g pCube3 group1
usemtl initialShadingGroup
f 1/1/1 3/2/2 18/3/3 17/22/4
f 2/5/5 1/4/6 6/29/7 5/18/8
f 3/26/9 2/5/10 8/14/11 7/27/12
f 4/6/13 6/7/14 20/8/15 19/9/16
f 5/18/17 4/10/18 12/30/19 11/15/20
f 7/11/21 9/19/22 14/12/23 13/13/24
f 9/19/25 8/14/26 11/15/27 10/20/28
f 10/20/29 12/16/30 16/17/31 15/21/32
f 2/5/33 5/18/34 11/15/35 8/14/36
f 9/19/37 10/20/38 15/21/39 14/12/40
f 1/1/41 17/22/42 20/8/43 6/7/44
f 4/10/45 19/23/46 16/24/47 12/30/48
f 18/25/49 3/26/50 7/27/51 13/28/52
f 1/4/53 2/5/54 3/26/55
f 4/10/56 5/18/57 6/29/58
f 7/27/59 8/14/60 9/19/61
f 10/20/62 11/15/63 12/30/64
g default
v -0.779489 0.344144 0.008555
v -0.779489 0.380313 0.044724
v -0.815658 0.380313 0.008555
v -0.162314 0.380313 0.008555
v -0.198483 0.380313 0.044724
v -0.198483 0.344144 0.008555
v -0.815658 0.681833 0.008555
v -0.779489 0.681833 0.044724
v -0.779489 0.718002 0.008555
v -0.198483 0.718002 0.008555
v -0.198483 0.681833 0.044724
v -0.162314 0.681833 0.008555
v -0.815658 0.681833 -0.075852
v -0.779489 0.718002 -0.075852
v -0.198483 0.718002 -0.075852
v -0.162314 0.681833 -0.075852
v -0.779489 0.344144 -0.075852
v -0.815658 0.380313 -0.075852
v -0.162314 0.380313 -0.075852
v -0.198483 0.344144 -0.075852
vt 0.388840 0.925007
vt 0.375000 0.925007
vt 0.375000 0.750000
vt 0.388840 0.000000
vt 0.388840 0.024186
vt 0.625000 0.925007
vt 0.611160 0.925008
vt 0.611160 0.750000
vt 0.625000 0.750000
vt 0.699993 0.024186
vt 0.375000 0.324993
vt 0.388840 0.500000
vt 0.375000 0.500000
vt 0.388840 0.225813
vt 0.611160 0.225813
vt 0.625000 0.324993
vt 0.625000 0.500000
vt 0.611160 0.024186
vt 0.388840 0.324993
vt 0.611160 0.324993
vt 0.611160 0.500000
vt 0.388840 0.750000
vt 0.875000 0.024186
vt 0.875000 0.225813
vt 0.125000 0.024186
vt 0.300007 0.024186
vt 0.300007 0.225813
vt 0.125000 0.225813
vt 0.611160 0.000000
vt 0.699993 0.225813
vn -0.707107 -0.707107 0.000000
vn -0.707107 -0.707107 0.000000
vn -0.707107 -0.707107 0.000000
vn -0.707107 -0.707107 0.000000
vn 0.000000 -0.707107 0.707107
vn 0.000000 -0.707107 0.707107
vn 0.000000 -0.707107 0.707107
vn 0.000000 -0.707107 0.707107
vn -0.707107 0.000000 0.707107
vn -0.707107 0.000000 0.707107
vn -0.707107 0.000000 0.707107
vn -0.707107 0.000000 0.707107
vn 0.707107 -0.707107 0.000000
vn 0.707107 -0.707107 0.000000
vn 0.707107 -0.707107 0.000000
vn 0.707107 -0.707107 0.000000
vn 0.707106 0.000000 0.707107
vn 0.707106 0.000000 0.707107
vn 0.707106 0.000000 0.707107
vn 0.707106 0.000000 0.707107
vn -0.707107 0.707107 0.000000
vn -0.707107 0.707107 0.000000
vn -0.707107 0.707107 0.000000
vn -0.707107 0.707107 0.000000
vn 0.000000 0.707107 0.707107
vn 0.000000 0.707107 0.707107
vn 0.000000 0.707107 0.707107
vn 0.000000 0.707107 0.707107
vn 0.707107 0.707107 0.000000
vn 0.707107 0.707107 0.000000
vn 0.707107 0.707107 0.000000
vn 0.707107 0.707107 0.000000
vn 0.000000 0.000000 1.000000
vn 0.000000 0.000000 1.000000
vn 0.000000 0.000000 1.000000
vn 0.000000 0.000000 1.000000
vn 0.000000 1.000000 0.000000
vn 0.000000 1.000000 0.000000
vn 0.000000 1.000000 0.000000
vn 0.000000 1.000000 0.000000
vn 0.000000 -1.000000 0.000000
vn 0.000000 -1.000000 0.000000
vn 0.000000 -1.000000 0.000000
vn 0.000000 -1.000000 0.000000
vn 1.000000 0.000000 0.000000
vn 1.000000 0.000000 0.000000
vn 1.000000 0.000000 0.000000
vn 1.000000 0.000000 0.000000
vn -1.000000 0.000000 0.000000
vn -1.000000 0.000000 0.000000
vn -1.000000 0.000000 0.000000
vn -1.000000 0.000000 0.000000
vn -0.577350 -0.577351 0.577350
vn -0.577350 -0.577351 0.577350
vn -0.577350 -0.577351 0.577350
vn 0.577350 -0.577351 0.577350
vn 0.577350 -0.577352 0.577350
vn 0.577350 -0.577351 0.577350
vn -0.577350 0.577351 0.577350
vn -0.577350 0.577351 0.577350
vn -0.577350 0.577351 0.577350
vn 0.577350 0.577351 0.577350
vn 0.577349 0.577351 0.577350
vn 0.577349 0.577351 0.577350
s off
g group1 pCube2
usemtl initialShadingGroup
f 21/31/65 23/32/66 38/33/67 37/52/68
f 22/35/69 21/34/70 26/59/71 25/48/72
f 23/56/73 22/35/74 28/44/75 27/57/76
f 24/36/77 26/37/78 40/38/79 39/39/80
f 25/48/81 24/40/82 32/60/83 31/45/84
f 27/41/85 29/49/86 34/42/87 33/43/88
f 29/49/89 28/44/90 31/45/91 30/50/92
f 30/50/93 32/46/94 36/47/95 35/51/96
f 22/35/97 25/48/98 31/45/99 28/44/100
f 29/49/101 30/50/102 35/51/103 34/42/104
f 21/31/105 37/52/106 40/38/107 26/37/108
f 24/40/109 39/53/110 36/54/111 32/60/112
f 38/55/113 23/56/114 27/57/115 33/58/116
f 21/34/117 22/35/118 23/56/119
f 24/40/120 25/48/121 26/59/122
f 27/57/123 28/44/124 29/49/125
f 30/50/126 31/45/127 32/60/128
g default
v -0.458032 -0.286111 0.022086
v -0.458032 -0.244144 0.064054
v -0.500000 -0.244144 0.022086
v 0.500000 -0.244144 0.022086
v 0.458032 -0.244144 0.064054
v 0.458032 -0.286111 0.022086
v -0.500000 0.244144 0.022086
v -0.458032 0.244144 0.064054
v -0.458032 0.286111 0.022086
v 0.458032 0.286111 0.022086
v 0.458032 0.244144 0.064054
v 0.500000 0.244144 0.022086
v -0.500000 0.244144 -0.075852
v -0.458032 0.286111 -0.075852
v 0.458032 0.286111 -0.075852
v 0.500000 0.244144 -0.075852
v -0.458032 -0.286111 -0.075852
v -0.500000 -0.244144 -0.075852
v 0.500000 -0.244144 -0.075852
v 0.458032 -0.286111 -0.075852
vt 0.385492 0.925007
vt 0.375000 0.925007
vt 0.375000 0.750000
vt 0.385492 0.000000
vt 0.385492 0.018335
vt 0.625000 0.925007
vt 0.614508 0.925008
vt 0.614508 0.750000
vt 0.625000 0.750000
vt 0.699993 0.018335
vt 0.375000 0.324993
vt 0.385492 0.500000
vt 0.375000 0.500000
vt 0.385492 0.231665
vt 0.614508 0.231665
vt 0.625000 0.324993
vt 0.625000 0.500000
vt 0.614508 0.018335
vt 0.385492 0.324993
vt 0.614508 0.324993
vt 0.614508 0.500000
vt 0.385492 0.750000
vt 0.875000 0.018335
vt 0.875000 0.231665
vt 0.125000 0.018335
vt 0.300007 0.018335
vt 0.300007 0.231665
vt 0.125000 0.231665
vt 0.614508 0.000000
vt 0.699993 0.231665
vn -0.707107 -0.707107 0.000000
vn -0.707107 -0.707107 0.000000
vn -0.707107 -0.707107 0.000000
vn -0.707107 -0.707107 0.000000
vn 0.000000 -0.707107 0.707107
vn 0.000000 -0.707107 0.707107
vn 0.000000 -0.707107 0.707107
vn 0.000000 -0.707107 0.707107
vn -0.707107 0.000000 0.707107
vn -0.707107 0.000000 0.707107
vn -0.707107 0.000000 0.707107
vn -0.707107 0.000000 0.707107
vn 0.707107 -0.707107 0.000000
vn 0.707107 -0.707107 0.000000
vn 0.707107 -0.707107 0.000000
vn 0.707107 -0.707107 0.000000
vn 0.707107 0.000000 0.707107
vn 0.707107 0.000000 0.707107
vn 0.707107 0.000000 0.707107
vn 0.707107 0.000000 0.707107
vn -0.707107 0.707107 0.000000
vn -0.707107 0.707107 0.000000
vn -0.707107 0.707107 0.000000
vn -0.707107 0.707107 0.000000
vn 0.000000 0.707107 0.707107
vn 0.000000 0.707107 0.707107
vn 0.000000 0.707107 0.707107
vn 0.000000 0.707107 0.707107
vn 0.707107 0.707107 0.000000
vn 0.707107 0.707107 0.000000
vn 0.707107 0.707107 0.000000
vn 0.707107 0.707107 0.000000
vn 0.000000 0.000000 1.000000
vn 0.000000 0.000000 1.000000
vn 0.000000 0.000000 1.000000
vn 0.000000 0.000000 1.000000
vn 0.000000 1.000000 0.000000
vn 0.000000 1.000000 0.000000
vn 0.000000 1.000000 0.000000
vn 0.000000 1.000000 0.000000
vn 0.000000 -1.000000 0.000000
vn 0.000000 -1.000000 0.000000
vn 0.000000 -1.000000 0.000000
vn 0.000000 -1.000000 0.000000
vn 1.000000 0.000000 0.000000
vn 1.000000 0.000000 0.000000
vn 1.000000 0.000000 0.000000
vn 1.000000 0.000000 0.000000
vn -1.000000 0.000000 0.000000
vn -1.000000 0.000000 0.000000
vn -1.000000 0.000000 0.000000
vn -1.000000 0.000000 0.000000
vn -0.577350 -0.577350 0.577350
vn -0.577350 -0.577350 0.577350
vn -0.577350 -0.577350 0.577350
vn 0.577350 -0.577350 0.577350
vn 0.577350 -0.577350 0.577350
vn 0.577350 -0.577350 0.577350
vn -0.577350 0.577350 0.577350
vn -0.577350 0.577350 0.577350
vn -0.577350 0.577350 0.577350
vn 0.577350 0.577350 0.577350
vn 0.577350 0.577350 0.577350
vn 0.577350 0.577350 0.577350
s off
g group1 pCube1
usemtl initialShadingGroup
f 41/61/129 43/62/130 58/63/131 57/82/132
f 42/65/133 41/64/134 46/89/135 45/78/136
f 43/86/137 42/65/138 48/74/139 47/87/140
f 44/66/141 46/67/142 60/68/143 59/69/144
f 45/78/145 44/70/146 52/90/147 51/75/148
f 47/71/149 49/79/150 54/72/151 53/73/152
f 49/79/153 48/74/154 51/75/155 50/80/156
f 50/80/157 52/76/158 56/77/159 55/81/160
f 42/65/161 45/78/162 51/75/163 48/74/164
f 49/79/165 50/80/166 55/81/167 54/72/168
f 41/61/169 57/82/170 60/68/171 46/67/172
f 44/70/173 59/83/174 56/84/175 52/90/176
f 58/85/177 43/86/178 47/87/179 53/88/180
f 41/64/181 42/65/182 43/86/183
f 44/70/184 45/78/185 46/89/186
f 47/87/187 48/74/188 49/79/189
f 50/80/190 51/75/191 52/90/192
g default
v -0.041371 0.347881 0.047012
v -0.041371 0.400530 0.099661
v -0.094020 0.400530 0.047012
v 0.392026 0.400530 0.047012
v 0.339377 0.400530 0.099661
v 0.339377 0.347881 0.047012
v -0.094020 0.806846 0.047012
v -0.041371 0.806846 0.099661
v -0.041371 0.859495 0.047012
v 0.339377 0.859495 0.047012
v 0.339377 0.806846 0.099661
v 0.392026 0.806846 0.047012
v -0.094020 0.806846 -0.075852
v -0.041371 0.859495 -0.075852
v 0.339377 0.859495 -0.075852
v 0.392026 0.806846 -0.075852
v -0.041371 0.347881 -0.075852
v -0.094020 0.400530 -0.075852
v 0.392026 0.400530 -0.075852
v 0.339377 0.347881 -0.075852
vt 0.402080 0.925007
vt 0.375000 0.925007
vt 0.375000 0.750000
vt 0.402080 0.000000
vt 0.402080 0.025727
vt 0.625000 0.925008
vt 0.597920 0.925007
vt 0.597920 0.750000
vt 0.625000 0.750000
vt 0.699992 0.025727
vt 0.375000 0.324993
vt 0.402080 0.500000
vt 0.375000 0.500000
vt 0.402080 0.224273
vt 0.597920 0.224273
vt 0.625000 0.324993
vt 0.625000 0.500000
vt 0.597920 0.025727
vt 0.402080 0.324993
vt 0.597920 0.324993
vt 0.597920 0.500000
vt 0.402080 0.750000
vt 0.875000 0.025727
vt 0.875000 0.224273
vt 0.125000 0.025727
vt 0.300008 0.025727
vt 0.300007 0.224273
vt 0.125000 0.224273
vt 0.597920 0.000000
vt 0.699993 0.224273
vn -0.707107 -0.707107 0.000000
vn -0.707107 -0.707107 0.000000
vn -0.707107 -0.707107 0.000000
vn -0.707107 -0.707107 0.000000
vn 0.000000 -0.707107 0.707107
vn 0.000000 -0.707107 0.707107
vn 0.000000 -0.707107 0.707107
vn 0.000000 -0.707107 0.707107
vn -0.707107 0.000000 0.707107
vn -0.707107 0.000000 0.707107
vn -0.707107 0.000000 0.707107
vn -0.707107 0.000000 0.707107
vn 0.707107 -0.707106 0.000000
vn 0.707107 -0.707106 0.000000
vn 0.707107 -0.707106 0.000000
vn 0.707107 -0.707106 0.000000
vn 0.707107 0.000000 0.707107
vn 0.707107 0.000000 0.707107
vn 0.707107 0.000000 0.707107
vn 0.707107 0.000000 0.707107
vn -0.707106 0.707107 0.000000
vn -0.707106 0.707107 0.000000
vn -0.707106 0.707107 0.000000
vn -0.707106 0.707107 0.000000
vn 0.000000 0.707107 0.707106
vn 0.000000 0.707107 0.707106
vn 0.000000 0.707107 0.707106
vn 0.000000 0.707107 0.707106
vn 0.707107 0.707107 0.000000
vn 0.707107 0.707107 0.000000
vn 0.707107 0.707107 0.000000
vn 0.707107 0.707107 0.000000
vn 0.000000 0.000000 1.000000
vn 0.000000 0.000000 1.000000
vn 0.000000 0.000000 1.000000
vn 0.000000 0.000000 1.000000
vn 0.000000 1.000000 0.000000
vn 0.000000 1.000000 0.000000
vn 0.000000 1.000000 0.000000
vn 0.000000 1.000000 0.000000
vn 0.000000 -1.000000 0.000000
vn 0.000000 -1.000000 0.000000
vn 0.000000 -1.000000 0.000000
vn 0.000000 -1.000000 0.000000
vn 1.000000 0.000000 0.000000
vn 1.000000 0.000000 0.000000
vn 1.000000 0.000000 0.000000
vn 1.000000 0.000000 0.000000
vn -1.000000 0.000000 0.000000
vn -1.000000 0.000000 0.000000
vn -1.000000 0.000000 0.000000
vn -1.000000 0.000000 0.000000
vn -0.577350 -0.577350 0.577350
vn -0.577350 -0.577350 0.577350
vn -0.577350 -0.577350 0.577350
vn 0.577351 -0.577350 0.577350
vn 0.577351 -0.577350 0.577350
vn 0.577351 -0.577350 0.577350
vn -0.577350 0.577351 0.577350
vn -0.577350 0.577351 0.577350
vn -0.577350 0.577351 0.577350
vn 0.577350 0.577350 0.577350
vn 0.577350 0.577350 0.577350
vn 0.577350 0.577350 0.577350
s off
g group1 pCube4
usemtl initialShadingGroup
f 61/91/193 63/92/194 78/93/195 77/112/196
f 62/95/197 61/94/198 66/119/199 65/108/200
f 63/116/201 62/95/202 68/104/203 67/117/204
f 64/96/205 66/97/206 80/98/207 79/99/208
f 65/108/209 64/100/210 72/120/211 71/105/212
f 67/101/213 69/109/214 74/102/215 73/103/216
f 69/109/217 68/104/218 71/105/219 70/110/220
f 70/110/221 72/106/222 76/107/223 75/111/224
f 62/95/225 65/108/226 71/105/227 68/104/228
f 69/109/229 70/110/230 75/111/231 74/102/232
f 61/91/233 77/112/234 80/98/235 66/97/236
f 64/100/237 79/113/238 76/114/239 72/120/240
f 78/115/241 63/116/242 67/117/243 73/118/244
f 61/94/245 62/95/246 63/116/247
f 64/100/248 65/108/249 66/119/250
f 67/117/251 68/104/252 69/109/253
f 70/110/254 71/105/255 72/120/256
